<?xml version="1.0" encoding="UTF-8"?>
<svg id="Capa_1" data-name="Capa 1" xmlns="http://www.w3.org/2000/svg" xmlns:xlink="http://www.w3.org/1999/xlink" viewBox="0 0 195.1 195.45">
  <defs>
    <style>
      .cls-1, .cls-2 {
        fill: #fff;
      }

      .cls-3, .cls-4, .cls-5 {
        fill: none;
      }

      .cls-3, .cls-4, .cls-5, .cls-6 {
        stroke: #000;
      }

      .cls-3, .cls-6, .cls-2 {
        stroke-miterlimit: 10;
      }

      .cls-4 {
        stroke-width: .5px;
      }

      .cls-4, .cls-5 {
        stroke-linecap: round;
        stroke-linejoin: round;
      }

      .cls-7 {
        fill: url(#Degradado_sin_nombre_48);
      }

      .cls-5 {
        stroke-width: .25px;
      }

      .cls-6 {
        fill: url(#Degradado_sin_nombre_67);
      }

      .cls-2 {
        stroke: #fff;
        stroke-width: .35px;
      }
    </style>
    <radialGradient id="Degradado_sin_nombre_48" data-name="Degradado sin nombre 48" cx="102.95" cy="71.86" fx="48.04" fy="174.3" r="116.23" gradientTransform="translate(0 23.38) scale(1 .88)" gradientUnits="userSpaceOnUse">
      <stop offset="0" stop-color="#ff3600"/>
      <stop offset=".18" stop-color="#fc3800"/>
      <stop offset=".31" stop-color="#f23f00"/>
      <stop offset=".43" stop-color="#e24c00"/>
      <stop offset=".54" stop-color="#cb5e00"/>
      <stop offset=".64" stop-color="#ae7500"/>
      <stop offset=".74" stop-color="#8a9100"/>
      <stop offset=".83" stop-color="#5fb300"/>
      <stop offset=".92" stop-color="#2fd900"/>
      <stop offset="1" stop-color="lime"/>
    </radialGradient>
    <radialGradient id="Degradado_sin_nombre_67" data-name="Degradado sin nombre 67" cx="89.77" cy="53.66" fx="89.77" fy="53.66" r="54.57" gradientTransform="translate(0 23.38) scale(1 .88)" gradientUnits="userSpaceOnUse">
      <stop offset="0" stop-color="#c46500"/>
      <stop offset=".2" stop-color="#c16700"/>
      <stop offset=".34" stop-color="#b76e00"/>
      <stop offset=".47" stop-color="#a77b00"/>
      <stop offset=".59" stop-color="#908d00"/>
      <stop offset=".71" stop-color="#73a400"/>
      <stop offset=".82" stop-color="#4fc000"/>
      <stop offset=".92" stop-color="#25e100"/>
      <stop offset="1" stop-color="lime"/>
    </radialGradient>
  </defs>
  <path d="M13.54,166.31s-.04,0-.06,0c-2.21-.03-3.97-1.62-3.94-3.56,.02-1.34,.73-32.92,21.76-43.46,1.92-.96,4.36-.37,5.46,1.31,1.09,1.69,.43,3.83-1.49,4.8-17.05,8.55-17.72,37.16-17.73,37.45-.03,1.92-1.82,3.47-4,3.47Z"/>
  <path class="cls-7" d="M70.8,31.36s4.72-17.08-12.08-.82S31,63.94,31,63.94c0,0-28.25,34.16,1.84,79.7,30.09,45.54,87.52,24.26,87.52,24.26,0,0,29.91-6.85,37.74-42.88,0,0,5.03-20.66,4.43-26.15l.9-10.32s.43-6.7,5.47-11.92,10.16-10.73,10.16-10.73c0,0,4.96-5.17,7.42-11.25s-5.98-3.91-5.98-3.91c0,0-12.07,2.66-33.82,16.5,0,0-1.86,.28-2.3-2.61-.45-2.89,1.74-6.54,1.74-6.54l3.09-3.45,2.22-1.52,1.97-.93,1.64-.55,1.93-.42,2.49-.14,2.33,.56,1.56,.58,1.9,.49,1.38,.1s3.91,.1,.6-4.71-9.45-5.48-9.45-5.48c0,0,1.01-8.18,8.07-12.54s8.83-4.82,8.83-4.82l6.48-2.08,2.31-.72s7.81-3.13-2.87-5.64-20.01,0-20.01,0c0,0-7.67,1.88-9.17,3.2l-1.22-1.06-2.89-2.67s-4.92-6.8-22.16-1.32c0,0-11.29,2.31-23.26,16.2l-.48-.49v-.93s.1-1.68,.1-1.68l.4-2.35,.4-1.88,.94-2.58,1.37-2.58,1.73-2.26,1.98-1.94,1.96-1.65,3.94-3.28,2.16-2.24,.76-1.01,.47-.72S121.56,.21,111.74,.21c0,0-3.59-.42-11.2,4.18l-5.04,3.59-3.6,2.83-4.91,4.23-5.66,5.39-2.68,2.73-6.56,7.11-1.29,1.08Z"/>
  <g>
    <path d="M67.39,99.43c-.23,0-.46-.02-.68-.06-1.19-.2-2.25-.93-3.05-2.11-1.56-2.31-2.01-5.93-1.2-9.69,1.18-5.44,4.8-9.71,8.26-9.71,.23,0,.46,.02,.68,.06,1.19,.2,2.25,.93,3.05,2.11,1.56,2.31,2.01,5.93,1.2,9.69-1.18,5.44-4.8,9.71-8.26,9.71Z"/>
    <path d="M70.71,78.35h0c.2,0,.4,.02,.6,.05,1.33,.22,2.21,1.16,2.72,1.9,1.47,2.16,1.9,5.73,1.12,9.31-1.13,5.22-4.54,9.32-7.77,9.32-.2,0-.4-.02-.6-.05-1.33-.22-2.21-1.16-2.72-1.9-1.47-2.16-1.9-5.73-1.12-9.31,1.13-5.22,4.54-9.32,7.77-9.32m0-1c-3.69,0-7.49,4.31-8.75,10.1-1.34,6.2,.74,11.75,4.66,12.41,.25,.04,.51,.06,.76,.06,3.69,0,7.49-4.31,8.75-10.1,1.34-6.2-.74-11.75-4.66-12.41-.25-.04-.51-.06-.76-.06h0Z"/>
  </g>
  <path class="cls-6" d="M79.74,71.7s18-30.76,60-39.55c0,0-13,11.43-26,35.15"/>
  <path class="cls-3" d="M139.74,71.7c11.82-7.32,24.41-15.3,37.99-19.84,1.81-.6,5.46-2.04,7.37-.95,2.92,1.66-.38,7.03-1.42,8.87-5.78,10.19-19.4,16.91-20.45,29.06-1.22,14.19-2.15,28.1-7.04,41.79-4.49,12.57-12.38,27.46-26.28,33.71-14.82,6.66-31.83,10.59-48.53,8.73-16.79-1.87-31.64-10.15-42.4-21.45-10.21-10.72-16.34-23.98-19.29-37.64-3.28-15.22,.48-30.91,8.1-44.68,1.94-3.5,4.1-6.9,6.43-10.22,0,0,33.5-43.64,36.5-33.98,3,9.67-16,43.94-16,43.94"/>
  <path class="cls-3" d="M34.23,59.1C79.73,.79,70.51,32.15,70.51,32.15c7.89-9.02,16.58-17.94,26.59-25.19,4.23-3.07,9.27-6.52,15.02-6.46,4.11,.05,7.72,1.56,5.19,5.57-3.17,5.02-9.51,7.68-12.75,12.71-2.62,4.07-3.55,8.82-3.27,13.46"/>
  <path class="cls-3" d="M124.77,56.49c14.23-17.29,29.73-14.35,34.34-13.27s8.26,5.54,8.26,5.54c0,0,3.9,6.79-5.25,3.38,0,0-2.09-1-4.17-.79s-8.99,1.13-12.9,8.48c0,0-2.82,7.04,1.43,7.7"/>
  <path class="cls-3" d="M157.6,43.21c.86-15.3,26.14-20.73,26.14-20.54,0,0,5-2.82,0-4.58-17.07-6-32.5,2.2-32.5,2.2"/>
  <path class="cls-3" d="M126.46,35.96c2.77-6.01,9.77-13.04,17.77-10.4,3,1.76,5,5.27,8,6.15,4-8.79-5-18.46-15-18.46-14,0-27,7.91-35.13,17.73,0,0-1.37,1.17-5.37,9.08"/>
  <g>
    <path d="M116.74,107.75c-.23,0-.46-.02-.68-.06-1.19-.2-2.25-.93-3.05-2.11-1.56-2.31-2.01-5.93-1.2-9.69,1.18-5.44,4.8-9.71,8.26-9.71,.23,0,.46,.02,.68,.06,1.19,.2,2.25,.93,3.05,2.11,1.56,2.31,2.01,5.93,1.2,9.69-1.18,5.44-4.8,9.71-8.26,9.71Z"/>
    <path d="M120.07,86.67h0c.2,0,.4,.02,.6,.05,1.33,.22,2.21,1.16,2.72,1.9,1.47,2.16,1.9,5.73,1.12,9.31-1.13,5.22-4.54,9.32-7.77,9.32-.2,0-.4-.02-.6-.05-1.33-.22-2.21-1.16-2.72-1.9-1.47-2.16-1.9-5.73-1.12-9.31,1.13-5.22,4.54-9.32,7.77-9.32m0-1c-3.69,0-7.49,4.31-8.75,10.1-1.34,6.2,.74,11.75,4.66,12.41,.25,.04,.51,.06,.76,.06,3.69,0,7.49-4.31,8.75-10.1,1.34-6.2-.74-11.75-4.66-12.41-.25-.04-.51-.06-.76-.06h0Z"/>
  </g>
  <path class="cls-3" d="M69.05,135.42c40.31,11.86,49.36-2.87,49.36-2.87"/>
  <path d="M156.65,166.89c-2.14,0-4.36-.34-6.53-1.21-7.23-2.91-11.48-10.64-12.63-22.98-.18-1.93,1.46-3.63,3.66-3.79,2.2-.16,4.13,1.28,4.31,3.22,.88,9.46,3.63,15.39,7.96,17.14,4.48,1.82,10.66-1.08,12.66-2.35,1.79-1.13,4.29-.79,5.58,.78,1.29,1.57,.91,3.76-.87,4.9-.34,.22-6.77,4.28-14.15,4.28Z"/>
  <g>
    <g>
      <path class="cls-1" d="M181.67,140.23l.09-2.15c1.32,.03,10.99,.47,12.85,7.02,.62,2.19-.01,3.6-1.19,4.53-2.59,2.04-7.81,1.63-7.81,1.63,0,0-6.82-.67-8.58-4.9-.27-.63-.42-1.34-.42-2.14,0-4.03,2.99-4.29,5.06-3.99Z"/>
      <path class="cls-1" d="M190.93,155.65c-2.08,.81-4.67,.47-4.67,.47,0,0-7.19-.39-9.97-3.79-.28-.33-.5-.69-.68-1.07-2-4.39,1.41-4.9,1.41-4.9h.01c1.76,4.23,8.58,4.9,8.58,4.9,0,0,5.22,.41,7.81-1.63,0,0,1.19,.75-.2,3.98-.44,1.03-1.31,1.66-2.29,2.04Z"/>
      <path class="cls-1" d="M190.93,155.65c.08,.11,.62,1.05-.32,3.52-.7,1.85-3.44,2.2-5.02,2.23-.68,.02-1.15-.02-1.15-.02,0,0-5.83,.42-8.83-3.09-.65-.76-.98-1.46-1.12-2.11-.47-2.35,1.8-3.85,1.8-3.85,2.78,3.4,9.97,3.79,9.97,3.79,0,0,2.59,.34,4.67-.47Z"/>
      <path class="cls-1" d="M184.44,161.38s.47,.04,1.15,.02c-.02,1.36-1.07,2.1-1.49,2.7-.51,.7-2.48,.89-5.49,.34-1.3-.24-2.62-.95-3.69-1.67-1.36-.91-2.31-1.85-2.31-1.85,0,0-1.27-1.92-1.04-3.32,.14-.88,.87-1.55,2.86-1.41h.06c.14,.64,.47,1.34,1.12,2.1,3,3.52,8.83,3.09,8.83,3.09Z"/>
      <path class="cls-1" d="M168.94,152.34c.01-3.19,2.11-5.08,2.11-5.08-.41-2.58,.72-4.59,.72-4.59,2.17-2.43,2.84-5.48,2.84-5.48,0,0,.43-4.89-1-7.03-2.58-3.86-1.15-6.69-1-6.15,0,0,2.26-3.52,8.13,0,0,0,.49,.33,1.12,.96,1.88,1.9,5,6.51-.25,13.1,0,0,.05,0,.15,0l-.09,2.15c-2.07-.3-5.06-.04-5.06,3.99,0,.8,.15,1.5,.42,2.14h-.01s-3.41,.5-1.41,4.9c.18,.39,.4,.75,.68,1.07,0,0-2.27,1.5-1.8,3.85h-.06c-1.99-.12-2.72,.54-2.86,1.42l-.96-.19c-1.25-1.92-1.67-3.63-1.67-5.07Z"/>
      <path class="cls-1" d="M172.61,160.92s.95,.93,2.31,1.85l-.13,.14s-6.18-.23-7.45-5.5c-1.08-4.51,.98-5.02,1.6-5.07,0,1.44,.42,3.16,1.67,5.07l.96,.19c-.23,1.4,1.04,3.32,1.04,3.32Z"/>
    </g>
    <g>
      <path class="cls-4" d="M171.77,149.46c-.39-.76-.61-1.5-.72-2.21-.41-2.58,.72-4.59,.72-4.59,2.17-2.43,2.84-5.48,2.84-5.48,0,0,.43-4.89-1-7.03-2.58-3.86-1.15-6.69-1-6.15,0,0,2.26-3.52,8.13,0,0,0,.49,.33,1.12,.96,1.88,1.9,5,6.51-.25,13.1,0,0,.05,0,.15,0,1.32,.03,10.99,.47,12.85,7.02,.62,2.19-.01,3.6-1.19,4.53-2.59,2.04-7.81,1.63-7.81,1.63,0,0-6.82-.67-8.58-4.9-.27-.63-.42-1.34-.42-2.14,0-4.03,2.99-4.29,5.06-3.99,1.1,.16,1.94,.47,1.94,.47,0,0,1.8,1.28,1.4,1.96"/>
      <path class="cls-4" d="M171.05,147.26s-2.1,1.89-2.11,5.08c0,1.44,.42,3.16,1.67,5.07"/>
      <path class="cls-4" d="M189.48,143.79s-4.45-.06-6.44-1.95"/>
      <path class="cls-4" d="M177.02,146.36s-3.41,.5-1.41,4.9c.18,.39,.4,.75,.68,1.07,2.78,3.4,9.97,3.79,9.97,3.79,0,0,2.59,.34,4.67-.47,.98-.38,1.85-1.01,2.29-2.04,1.39-3.23,.2-3.98,.2-3.98"/>
      <path class="cls-4" d="M176.29,152.33s-2.27,1.5-1.8,3.85c.14,.65,.47,1.35,1.12,2.11,3,3.52,8.83,3.09,8.83,3.09,0,0,.47,.04,1.15,.02,1.58-.04,4.32-.39,5.02-2.23,.94-2.47,.4-3.41,.32-3.52h0"/>
      <path class="cls-4" d="M174.43,156.18c-1.99-.13-2.72,.54-2.86,1.41-.23,1.4,1.04,3.32,1.04,3.32,0,0,.95,.93,2.31,1.85,1.07,.72,2.39,1.43,3.69,1.67,3.01,.54,4.98,.36,5.49-.34,.42-.6,1.47-1.34,1.49-2.7"/>
      <path class="cls-4" d="M169.11,152.33s-.06,0-.17,0c-.62,.05-2.68,.56-1.6,5.07,1.27,5.27,7.45,5.5,7.45,5.5"/>
    </g>
  </g>
  <path class="cls-3" d="M113.74,128.83s5,4.39,10,6.15"/>
  <g>
    <g>
      <path class="cls-1" d="M17.56,167.3c.13,.02,.82,.12,2.04,.7,2.04,1.32,3.03,4.17,3.13,6.12,.17,3.09,1.15,3.35,4.36,4.61,2.63,1.03,1.89,3.18-.26,4.57-3.2,2.07-6.11-.85-7.92-3.1-.4,1.65-.92,3.42-1.18,3.88,.09,.65,.35,1.72,1.14,2.83,1.4,1.97,3.55,2.7,4.26,2.92,1.6,1.04,2.13,2.74,1.46,3.91-.55,.95-1.71,1.26-2.02,1.34-2.74,.45-5.05-.37-6.82-1.82h-.01c-2.28-.03-3.95-.76-5.2-1.8-3.44-.02-5.39-1.69-6.51-3.52l-.15,.08c-7.53-3-1.64-15.46,2.43-19.01,0,0-.42-.03-.88-.26-.75-.38-1.59-1.27-.74-3.41,1.37-3.42,6.45-3.88,6.45-3.88,0,0,4.08-.54,7.87,1.54s1.42,5.42,1.42,5.42c-.3-.17-.58-.3-.83-.42-.59-.38-1.27-.64-2.04-.7Z"/>
      <g>
        <path class="cls-5" d="M11.05,165.31s-4.45,1.07-4.74,3.69"/>
        <path class="cls-5" d="M18.54,167.38c.19-1.75-3.91-1.77-3.91-1.77"/>
        <path class="cls-5" d="M17.56,167.3c.13,.02,.82,.12,2.04,.7,.25,.12,.52,.26,.83,.42,0,0,2.37-3.33-1.42-5.42s-7.87-1.54-7.87-1.54c0,0-5.07,.46-6.45,3.88-.85,2.14-.02,3.03,.74,3.41,.46,.22,.88,.26,.88,.26,2.28-2.46,3.27-2.37,3.27-2.37"/>
        <path class="cls-5" d="M6.31,169c-4.07,3.54-9.96,16-2.43,19.01"/>
        <path class="cls-5" d="M2.57,183.13s.08,2.53,1.46,4.8c1.12,1.83,3.07,3.5,6.51,3.52,.12,0,.25,.01,.37,0"/>
        <path class="cls-5" d="M7.06,184.36s.34,4.5,3.48,7.1c1.24,1.04,2.92,1.77,5.2,1.81"/>
        <path class="cls-5" d="M11.93,183.92c-.45,3.03,.98,7.01,3.82,9.34,1.77,1.45,4.08,2.27,6.82,1.82,.31-.08,1.48-.39,2.02-1.34,.68-1.17,.15-2.87-1.46-3.91-.72-.22-2.86-.95-4.26-2.92-.79-1.11-1.05-2.18-1.14-2.83,.26-.46,.78-2.23,1.18-3.88,.33-1.35,.58-2.62,.57-3.03"/>
        <path class="cls-5" d="M18.89,180.16s.02,.03,.03,.04c1.82,2.24,4.72,5.17,7.92,3.1,2.15-1.39,2.89-3.54,.26-4.57-3.21-1.26-4.19-1.52-4.36-4.61-.1-1.95-1.1-4.81-3.13-6.12-.59-.38-1.27-.64-2.04-.7h-.02"/>
      </g>
    </g>
    <path class="cls-2" d="M10.36,190.84s1.06,.94,1.03,.91"/>
  </g>
</svg>